HIERARCHY
ROOT Hips
{
 OFFSET 0.000000 0.000000 0.000000
 CHANNELS 6 Xposition Yposition Zposition Yrotation Xrotation Zrotation
 JOINT Chest
 {
  OFFSET 0.000000 9.581000 -0.001100
  CHANNELS 3 Yrotation Xrotation Zrotation
  JOINT Chest2
  {
   OFFSET 0.000000 9.561100 0.002200
   CHANNELS 3 Yrotation Xrotation Zrotation
   JOINT Chest3
   {
    OFFSET 0.000000 9.521100 0.000000
    CHANNELS 3 Yrotation Xrotation Zrotation
    JOINT Chest4
    {
     OFFSET 0.000000 9.511400 0.000000
     CHANNELS 3 Yrotation Xrotation Zrotation
     JOINT Neck
     {
      OFFSET 0.000000 14.375100 0.000000
      CHANNELS 3 Yrotation Xrotation Zrotation
      JOINT Head
      {
       OFFSET 0.000000 8.901200 0.004600
       CHANNELS 3 Yrotation Xrotation Zrotation
       End Site
       {
        OFFSET 0.000000 16.962200 0.002400
       }
      }
     }
     JOINT RightCollar
     {
      OFFSET -2.920100 9.518800 0.000000
      CHANNELS 3 Yrotation Xrotation Zrotation
      JOINT RightShoulder
      {
       OFFSET -13.664500 0.000000 0.000000
       CHANNELS 3 Yrotation Xrotation Zrotation
       JOINT RightElbow
       {
        OFFSET 0.000000 -29.999200 0.000000
        CHANNELS 3 Yrotation Xrotation Zrotation
        JOINT RightWrist
        {
         OFFSET 0.000000 -24.253600 0.000000
         CHANNELS 3 Yrotation Xrotation Zrotation
         End Site
         {
          OFFSET 0.000000 -17.918900 0.000000
         }
        }
       }
      }
     }
     JOINT LeftCollar
     {
      OFFSET 2.920100 9.518800 0.000000
      CHANNELS 3 Yrotation Xrotation Zrotation
      JOINT LeftShoulder
      {
       OFFSET 13.664500 0.000000 0.000000
       CHANNELS 3 Yrotation Xrotation Zrotation
       JOINT LeftElbow
       {
        OFFSET 0.000000 -29.999200 0.000000
        CHANNELS 3 Yrotation Xrotation Zrotation
        JOINT LeftWrist
        {
         OFFSET 0.000000 -24.253600 0.000000
         CHANNELS 3 Yrotation Xrotation Zrotation
         End Site
         {
          OFFSET 0.000000 -17.918900 0.000000
         }
        }
       }
      }
     }
    }
   }
  }
 }
 JOINT RightHip
 {
  OFFSET -7.797300 0.005300 0.000500
  CHANNELS 3 Yrotation Xrotation Zrotation
  JOINT RightKnee
  {
   OFFSET 0.000000 -40.663400 -0.000500
   CHANNELS 3 Yrotation Xrotation Zrotation
   JOINT RightAnkle
   {
    OFFSET 0.000000 -39.523700 -0.000900
    CHANNELS 3 Yrotation Xrotation Zrotation
    JOINT RightToe
    {
     OFFSET 0.000000 -6.418000 14.485300
     CHANNELS 3 Yrotation Xrotation Zrotation
     End Site
     {
      OFFSET 0.000000 -1.465200 6.326400
     }
    }
   }
  }
 }
 JOINT LeftHip
 {
  OFFSET 7.797300 0.005300 0.000500
  CHANNELS 3 Yrotation Xrotation Zrotation
  JOINT LeftKnee
  {
   OFFSET 0.000000 -40.663400 -0.000500
   CHANNELS 3 Yrotation Xrotation Zrotation
   JOINT LeftAnkle
   {
    OFFSET 0.000000 -39.523700 -0.000900
    CHANNELS 3 Yrotation Xrotation Zrotation
    JOINT LeftToe
    {
     OFFSET 0.000000 -6.418000 14.485300
     CHANNELS 3 Yrotation Xrotation Zrotation
     End Site
     {
      OFFSET 0.000000 -1.465200 6.326400
     }
    }
   }
  }
 }
}
MOTION
Frames: 14
Frame Time: 0.008333
-2.018493 126.006187 23.729593 -169.592297 -20.388601 -1.735921 -1.831504 23.515677 1.524062 -0.301740 3.468863 0.276740 -0.478895 5.593485 0.437752 -1.535623 19.654217 1.368150 -1.829837 10.311507 -2.218552 -1.434699 -14.801370 -1.938770 -0.406203 -6.984473 0.864830 14.333488 -25.564470 -4.876747 -167.619573 -67.568121 -173.723666 -12.729922 -22.370771 -28.296032 -10.398620 -7.197432 -0.434150 -18.782919 -29.736520 11.066241 125.523619 -77.470330 -146.955241 -25.936770 -32.802961 74.147352 -13.115351 -65.441994 9.933772 -41.551319 71.980400 -44.390164 19.982598 25.433876 11.179865 -0.142485 0.041779 -0.063172 -0.516184 -55.243546 -6.924405 84.631947 76.830314 78.298877 -14.719266 -10.739452 -2.327213 0.009237 -0.004060 0.004092
-2.017633 126.003891 23.730753 -169.557502 -20.367412 -1.732126 -1.850950 23.481443 1.533016 -0.294704 3.451985 0.283090 -0.478038 5.577439 0.438469 -1.553623 19.665763 1.359660 -1.795076 10.268475 -2.230161 -1.414526 -14.810101 -1.963991 -0.368544 -7.123595 0.859607 14.374348 -25.580102 -4.936701 -167.653627 -67.468465 -173.638029 -12.631742 -22.417701 -28.418211 -10.381345 -7.307797 -0.384927 -18.719355 -29.718177 11.056979 126.124695 -77.381587 -147.614037 -25.903942 -32.802082 74.050678 -13.114980 -65.515178 9.842803 -41.498713 72.005880 -44.351829 20.134036 25.649631 11.359612 -0.102351 0.063790 -0.045393 -0.559567 -55.260892 -6.898696 84.649055 76.867045 78.283966 -14.722020 -10.757936 -2.341344 0.003024 0.000946 0.001340
-2.020773 126.000862 23.734931 -169.552604 -20.338811 -1.688665 -1.869261 23.447099 1.493250 -0.274992 3.420371 0.301327 -0.477487 5.560686 0.438992 -1.544666 19.623906 1.370902 -1.790334 10.281357 -2.249324 -1.395284 -14.813914 -1.983602 -0.357530 -7.196159 0.843091 14.386761 -25.595844 -4.988139 -167.635766 -67.364588 -173.583936 -12.521462 -22.458166 -28.560167 -10.390147 -7.358182 -0.360701 -18.691314 -29.699127 11.061413 126.784356 -77.301595 -148.307394 -25.860559 -32.799142 73.949028 -12.860647 -65.696960 9.519610 -41.572966 72.095802 -44.355143 20.316942 25.969833 11.534889 -0.057149 0.010931 -0.025325 -0.510807 -55.288713 -6.960075 84.656838 76.878620 78.281403 -14.719071 -10.760615 -2.342528 0.004690 -0.001175 0.002078
-2.021744 125.997557 23.740749 -169.563317 -20.305535 -1.647887 -1.849910 23.386263 1.488092 -0.277621 3.401983 0.302018 -0.477035 5.542411 0.439324 -1.536540 19.578083 1.382060 -1.784155 10.302334 -2.265203 -1.409761 -14.769781 -1.994416 -0.346641 -7.244232 0.823076 14.378041 -25.612264 -5.029833 -167.572848 -67.258109 -173.563185 -12.401257 -22.478481 -28.718152 -10.397014 -7.394540 -0.345768 -18.698446 -29.679799 11.078366 127.401792 -77.223899 -148.939943 -25.808859 -32.789429 73.843969 -12.593022 -65.891761 9.245655 -41.715121 72.148714 -44.423825 20.395720 26.344960 11.702287 -0.010884 -0.054819 -0.004817 -0.483849 -55.322534 -6.967072 84.700276 76.913911 78.285106 -14.726296 -10.767421 -2.323580 0.010381 -0.001347 0.004599
-2.018540 125.994851 23.746029 -169.583991 -20.279626 -1.626515 -1.799928 23.286777 1.537189 -0.299461 3.422803 0.277296 -0.475619 5.523453 0.439211 -1.534391 19.549934 1.385116 -1.767043 10.309389 -2.274188 -1.372349 -14.783296 -2.010534 -0.329164 -7.289285 0.805867 14.360535 -25.628661 -5.064763 -167.497612 -67.153274 -173.560964 -12.279124 -22.474500 -28.886586 -10.400087 -7.441139 -0.332792 -18.723708 -29.660119 11.103559 127.893627 -77.142291 -149.440143 -25.748338 -32.766965 73.732719 -12.442993 -66.041025 9.134911 -41.812083 72.142365 -44.495537 20.417335 26.731574 11.897808 0.023175 -0.090345 0.010256 -0.468882 -55.350624 -6.948778 84.754507 76.938516 78.301149 -14.728246 -10.770973 -2.293932 0.002061 -0.001480 0.000913
-2.010816 125.993336 23.749413 -169.599908 -20.268954 -1.634685 -1.771813 23.244418 1.573427 -0.297308 3.399343 0.283084 -0.472882 5.505279 0.439021 -1.527473 19.523038 1.388372 -1.750809 10.317392 -2.282738 -1.335641 -14.795179 -2.025327 -0.316222 -7.323342 0.787246 14.344814 -25.639788 -5.092794 -167.450210 -67.050097 -173.549116 -12.157089 -22.446851 -29.067258 -10.410903 -7.487012 -0.329573 -18.751647 -29.642656 11.132308 128.182068 -77.054985 -149.744165 -25.683668 -32.733211 73.617125 -12.409050 -66.137296 9.142658 -41.846726 72.097225 -44.538502 20.507731 27.105954 12.141167 0.044590 -0.089770 0.019730 -0.479344 -55.363030 -6.909383 84.797865 76.947399 78.331535 -14.720027 -10.779638 -2.279765 0.005968 0.001586 0.002644
-2.000379 125.993615 23.749591 -169.588350 -20.282528 -1.673227 -1.765427 23.248398 1.617199 -0.295607 3.353600 0.300208 -0.469681 5.488629 0.439033 -1.518606 19.498430 1.392555 -1.733857 10.324816 -2.292484 -1.315275 -14.787426 -2.039476 -0.322216 -7.292059 0.765781 14.350503 -25.673806 -5.118806 -167.483679 -66.917793 -173.468652 -12.033620 -22.395948 -29.267727 -10.426589 -7.535460 -0.335716 -18.773709 -29.632311 11.160154 128.230351 -76.966040 -149.823566 -25.612026 -32.695203 73.493613 -12.480179 -66.154482 9.217950 -41.782273 72.010352 -44.503171 20.708182 27.417779 12.446356 0.026050 -0.024376 0.011538 -0.499118 -55.355880 -6.889813 84.839610 76.939621 78.394398 -14.706941 -10.774492 -2.259896 -0.002947 0.002577 -0.001306
-1.996089 125.992928 23.754792 -169.622591 -20.279122 -1.658122 -1.736171 23.197977 1.636889 -0.300488 3.343312 0.297308 -0.464632 5.490530 0.434150 -1.509123 19.459831 1.403502 -1.714442 10.330743 -2.303774 -1.291889 -14.781182 -2.055876 -0.323304 -7.264546 0.742083 14.337951 -25.642299 -5.117740 -167.640460 -66.734230 -173.266741 -11.907532 -22.330033 -29.493690 -10.442159 -7.587921 -0.347611 -18.784523 -29.632895 11.179942 128.040530 -76.881092 -149.685670 -25.528138 -32.658621 73.357870 -12.492203 -66.281314 9.306071 -42.040912 71.945081 -44.818444 20.861761 27.842765 12.698086 0.097769 -0.058424 0.043279 -0.438006 -55.360312 -6.925945 84.845530 76.930514 78.412877 -14.706596 -10.771834 -2.244853 -0.007853 0.007201 -0.003480
-1.991817 125.994026 23.756848 -169.645385 -20.300330 -1.656320 -1.719049 23.171344 1.660562 -0.308439 3.335479 0.294979 -0.461787 5.477194 0.434906 -1.500623 19.439925 1.409436 -1.691881 10.334269 -2.317486 -1.264597 -14.777518 -2.075673 -0.293449 -7.388436 0.708558 14.344982 -25.630674 -5.157116 -167.693585 -66.711977 -173.248251 -11.774440 -22.259793 -29.739877 -10.452353 -7.642612 -0.362440 -18.783176 -29.645841 11.186067 127.639309 -76.803467 -149.359528 -25.438866 -32.629573 73.215019 -12.558035 -66.324937 9.399888 -42.152201 71.848523 -44.989764 21.078707 28.192806 13.006217 0.103140 -0.040385 0.045669 -0.380083 -55.339617 -6.972798 84.852024 76.913429 78.448702 -14.703152 -10.770282 -2.241127 -0.014450 0.007675 -0.006403
-1.985228 125.995783 23.758153 -169.671100 -20.327328 -1.675541 -1.701427 23.153838 1.700629 -0.306453 3.338800 0.289691 -0.469592 5.432689 0.445356 -1.496319 19.437520 1.410533 -1.664071 10.335910 -2.334326 -1.231094 -14.775823 -2.100079 -0.276967 -7.447654 0.670807 14.352910 -25.611078 -5.182679 -167.846443 -66.629867 -173.115464 -11.635745 -22.190574 -29.984956 -10.455418 -7.694965 -0.379765 -18.770778 -29.666253 11.179433 127.101148 -76.734764 -148.911408 -25.355206 -32.616931 73.073291 -12.627392 -66.319866 9.492365 -42.227576 71.718147 -45.103111 21.332823 28.494855 13.327065 0.092564 0.003166 0.041014 -0.333194 -55.313396 -7.003660 84.838923 76.905716 78.481017 -14.673886 -10.773290 -2.246894 -0.021340 0.007937 -0.009457
-1.983991 125.998047 23.759501 -169.695482 -20.361691 -1.671939 -1.740732 23.087816 1.706125 -0.256370 3.426080 0.266471 -0.495460 5.373915 0.458540 -1.499238 19.418137 1.418771 -1.636926 10.383372 -2.367397 -1.187162 -14.821334 -2.114298 -0.251267 -7.470829 0.628123 14.356261 -25.594322 -5.205368 -168.039809 -66.524764 -172.937474 -11.496274 -22.130312 -30.206343 -10.446976 -7.742242 -0.401677 -18.753653 -29.685871 11.164991 126.544050 -76.675689 -148.446077 -25.287096 -32.621877 72.942316 -12.688711 -66.318240 9.524679 -42.264196 71.619784 -45.183176 21.633084 28.783004 13.662996 0.059673 0.030284 0.026452 -0.276306 -55.278465 -7.047411 84.820248 76.894658 78.492120 -14.691357 -10.765956 -2.246873 -0.022310 0.009007 -0.009887
-1.983548 126.000489 23.760894 -169.714763 -20.396879 -1.673341 -1.763434 23.069213 1.703909 -0.282061 3.372271 0.277894 -0.475545 5.406430 0.448367 -1.510340 19.397893 1.426510 -1.589044 10.361394 -2.378867 -1.140944 -14.798130 -2.148443 -0.213288 -7.485313 0.584036 14.355801 -25.581009 -5.231711 -168.223690 -66.421593 -172.769199 -11.356206 -22.090000 -30.400024 -10.425891 -7.784560 -0.424998 -18.741047 -29.698733 11.146479 126.097404 -76.627566 -148.081246 -25.234736 -32.634708 72.820941 -12.714378 -66.308281 9.499992 -42.265855 71.536619 -45.203545 21.941545 29.046273 13.996778 0.018233 0.056062 0.008086 -0.227945 -55.240022 -7.093904 84.788619 76.870668 78.488238 -14.671360 -10.767650 -2.262614 -0.013283 0.006902 -0.005886
-1.983937 126.003021 23.762105 -169.730924 -20.433231 -1.677852 -1.792337 23.049673 1.697586 -0.295311 3.347513 0.281373 -0.469607 5.408646 0.446426 -1.527656 19.376205 1.431851 -1.539135 10.339360 -2.384004 -1.086363 -14.772102 -2.181628 -0.175041 -7.489937 0.545283 14.346269 -25.571271 -5.258517 -168.375961 -66.319775 -172.621369 -11.221666 -22.070187 -30.569709 -10.401800 -7.820503 -0.442946 -18.738895 -29.700292 11.126728 125.857041 -76.592742 -147.899975 -25.187832 -32.646758 72.700677 -12.672658 -66.292196 9.416873 -42.280537 71.453599 -45.205776 22.195002 29.295673 14.303343 -0.015911 0.077047 -0.007057 -0.187432 -55.200772 -7.135235 84.763912 76.843529 78.488116 -14.665470 -10.768702 -2.265930 -0.016474 0.007890 -0.007300
-1.981431 126.005083 23.763962 -169.747559 -20.460836 -1.703445 -1.812779 23.021034 1.711093 -0.298724 3.337858 0.282061 -0.475111 5.393942 0.447512 -1.513433 19.406486 1.427862 -1.518789 10.290557 -2.372381 -1.031020 -14.766479 -2.203545 -0.179013 -7.540512 0.531686 14.323126 -25.564834 -5.281888 -168.480393 -66.220769 -172.501687 -11.097556 -22.061631 -30.721255 -10.418683 -7.900919 -0.426440 -18.748690 -29.689223 11.108171 125.828950 -76.571155 -147.904406 -25.139705 -32.651818 72.583425 -12.683370 -66.270645 9.420050 -42.324296 71.349379 -45.237186 22.367517 29.543520 14.557540 -0.024189 0.090705 -0.010730 -0.202767 -55.174046 -7.105759 84.733608 76.840998 78.469670 -14.655236 -10.768956 -2.275058 -0.009000 0.008854 -0.003988
